<mxfile host="Electron" modified="2025-02-27T16:06:37.784Z" agent="Mozilla/5.0 (X11; Linux x86_64) AppleWebKit/537.36 (KHTML, like Gecko) draw.io/24.6.4 Chrome/124.0.6367.207 Electron/30.0.6 Safari/537.36" etag="BnjsOadv0RdnuQqF4OD2" version="24.6.4" type="device">
  <diagram name="Page-1" id="H0-c56ghKcE3y7NCpvR8">
    <mxGraphModel dx="683" dy="419" grid="1" gridSize="10" guides="1" tooltips="1" connect="1" arrows="1" fold="1" page="1" pageScale="1" pageWidth="827" pageHeight="1169" math="0" shadow="0">
      <root>
        <mxCell id="0" />
        <mxCell id="1" parent="0" />
        <mxCell id="3e-MaDiTpA6l3JFiWncr-1" value="" style="rounded=0;html=1;jettySize=auto;orthogonalLoop=1;fontSize=11;endArrow=block;endFill=0;endSize=8;strokeWidth=1;shadow=0;labelBackgroundColor=none;edgeStyle=orthogonalEdgeStyle;" edge="1" parent="1" source="3e-MaDiTpA6l3JFiWncr-2">
          <mxGeometry relative="1" as="geometry">
            <mxPoint x="220" y="170" as="targetPoint" />
          </mxGeometry>
        </mxCell>
        <mxCell id="3e-MaDiTpA6l3JFiWncr-2" value="map composer&lt;br&gt;to recorder" style="rounded=1;whiteSpace=wrap;html=1;fontSize=12;glass=0;strokeWidth=1;shadow=0;fillColor=#f8cecc;strokeColor=#b85450;" vertex="1" parent="1">
          <mxGeometry x="160" y="80" width="120" height="40" as="geometry" />
        </mxCell>
        <mxCell id="3e-MaDiTpA6l3JFiWncr-3" value="send id contained&lt;br&gt;in composer" style="rounded=1;whiteSpace=wrap;html=1;fontSize=12;glass=0;strokeWidth=1;shadow=0;fillColor=#f8cecc;strokeColor=#b85450;" vertex="1" parent="1">
          <mxGeometry x="160" y="170" width="120" height="40" as="geometry" />
        </mxCell>
        <mxCell id="3e-MaDiTpA6l3JFiWncr-4" value="" style="edgeStyle=orthogonalEdgeStyle;rounded=0;orthogonalLoop=1;jettySize=auto;html=1;" edge="1" parent="1" source="3e-MaDiTpA6l3JFiWncr-5" target="3e-MaDiTpA6l3JFiWncr-6">
          <mxGeometry relative="1" as="geometry" />
        </mxCell>
        <mxCell id="3e-MaDiTpA6l3JFiWncr-5" value="resolves ID" style="rounded=1;whiteSpace=wrap;html=1;fontSize=12;glass=0;strokeWidth=1;shadow=0;fillColor=#dae8fc;strokeColor=#6c8ebf;" vertex="1" parent="1">
          <mxGeometry x="330" y="210" width="120" height="40" as="geometry" />
        </mxCell>
        <mxCell id="3e-MaDiTpA6l3JFiWncr-6" value="returns recorder" style="rounded=1;whiteSpace=wrap;html=1;fontSize=12;glass=0;strokeWidth=1;shadow=0;fillColor=#dae8fc;strokeColor=#6c8ebf;" vertex="1" parent="1">
          <mxGeometry x="330" y="290" width="120" height="40" as="geometry" />
        </mxCell>
        <mxCell id="3e-MaDiTpA6l3JFiWncr-7" value="" style="edgeStyle=orthogonalEdgeStyle;rounded=0;orthogonalLoop=1;jettySize=auto;html=1;endArrow=none;endFill=0;startArrow=classic;startFill=1;" edge="1" parent="1" source="3e-MaDiTpA6l3JFiWncr-8" target="3e-MaDiTpA6l3JFiWncr-6">
          <mxGeometry relative="1" as="geometry" />
        </mxCell>
        <mxCell id="3e-MaDiTpA6l3JFiWncr-8" value="&amp;nbsp;adds recorder as part of the Bundle" style="rounded=1;whiteSpace=wrap;html=1;fontSize=12;glass=0;strokeWidth=1;shadow=0;fillColor=#f8cecc;strokeColor=#b85450;" vertex="1" parent="1">
          <mxGeometry x="170" y="340" width="120" height="40" as="geometry" />
        </mxCell>
        <mxCell id="3e-MaDiTpA6l3JFiWncr-9" value="" style="rounded=0;html=1;jettySize=auto;orthogonalLoop=1;fontSize=11;endArrow=block;endFill=0;endSize=8;strokeWidth=1;shadow=0;labelBackgroundColor=none;edgeStyle=orthogonalEdgeStyle;exitX=1;exitY=0.5;exitDx=0;exitDy=0;entryX=0.5;entryY=0;entryDx=0;entryDy=0;" edge="1" parent="1" source="3e-MaDiTpA6l3JFiWncr-3" target="3e-MaDiTpA6l3JFiWncr-5">
          <mxGeometry relative="1" as="geometry">
            <mxPoint x="230" y="130" as="sourcePoint" />
            <mxPoint x="230" y="180" as="targetPoint" />
          </mxGeometry>
        </mxCell>
        <mxCell id="3e-MaDiTpA6l3JFiWncr-10" value="" style="ellipse;whiteSpace=wrap;html=1;aspect=fixed;fillColor=#f8cecc;strokeColor=#b85450;" vertex="1" parent="1">
          <mxGeometry x="370" y="75" width="20" height="20" as="geometry" />
        </mxCell>
        <mxCell id="3e-MaDiTpA6l3JFiWncr-11" value="" style="ellipse;whiteSpace=wrap;html=1;aspect=fixed;fillColor=#dae8fc;strokeColor=#6c8ebf;" vertex="1" parent="1">
          <mxGeometry x="370" y="120" width="20" height="20" as="geometry" />
        </mxCell>
        <mxCell id="3e-MaDiTpA6l3JFiWncr-12" value="FHIRconnect engine" style="text;html=1;align=center;verticalAlign=middle;whiteSpace=wrap;rounded=0;" vertex="1" parent="1">
          <mxGeometry x="390" y="75" width="90" height="30" as="geometry" />
        </mxCell>
        <mxCell id="3e-MaDiTpA6l3JFiWncr-13" value="Demographics" style="text;html=1;align=center;verticalAlign=middle;whiteSpace=wrap;rounded=0;" vertex="1" parent="1">
          <mxGeometry x="390" y="115" width="90" height="30" as="geometry" />
        </mxCell>
      </root>
    </mxGraphModel>
  </diagram>
</mxfile>
